<svg width="18" height="18" viewBox="0 0 18 18" fill="none" xmlns="http://www.w3.org/2000/svg">
<path d="M15.2399 0H2.75996C2.09828 0 1.55994 0.538312 1.55994 1.19999V11.28H2.99994V1.44H14.9999V11.28H16.4399V1.19999C16.44 0.538312 15.9017 0 15.2399 0Z" fill="white"/>
<path d="M9.00003 10.5599C8.60234 10.5599 8.28003 10.8822 8.28003 11.2799V17.2799C8.28003 17.6776 8.60234 17.9999 9.00003 17.9999C9.39771 17.9999 9.72002 17.6776 9.72002 17.2799V11.2799C9.72002 10.8823 9.39771 10.5599 9.00003 10.5599Z" fill="white"/>
<path d="M13.2292 16.4111L9.6292 12.8111C9.34792 12.5298 8.89215 12.5298 8.61111 12.8111C8.32983 13.0921 8.32983 13.5481 8.61111 13.8292L12.2111 17.4292C12.3517 17.5698 12.5358 17.6401 12.7201 17.6401C12.9045 17.6401 13.0885 17.5698 13.2292 17.4292C13.5105 17.1481 13.5105 16.6921 13.2292 16.4111Z" fill="white"/>
<path d="M16.9199 10.5599H1.07986C0.682176 10.5599 0.359863 10.8822 0.359863 11.2799C0.359863 11.6776 0.682176 11.9999 1.07986 11.9999H16.9199C17.3176 11.9999 17.6399 11.6776 17.6399 11.2799C17.6399 10.8823 17.3176 10.5599 16.9199 10.5599Z" fill="white"/>
<path d="M9.38911 12.8111C9.10783 12.5298 8.65206 12.5298 8.37102 12.8111L4.77102 16.4111C4.48974 16.6921 4.48974 17.1481 4.77102 17.4292C4.91144 17.5698 5.09573 17.6401 5.28005 17.6401C5.46437 17.6401 5.6487 17.5698 5.78908 17.4292L9.38908 13.8292C9.6704 13.5481 9.6704 13.0921 9.38911 12.8111Z" fill="white"/>
</svg>
