<svg width="22" height="19" viewBox="0 0 22 19" fill="none" xmlns="http://www.w3.org/2000/svg">
<path d="M19.4219 0H2.57812C1.15646 0 0 1.1622 0 2.59091V12.9545C0 14.3833 1.15646 15.5455 2.57812 15.5455H10.1406V17.2727H5.67188V19H16.3281V17.2727H11.8594V15.5455H19.4219C20.8435 15.5455 22 14.3833 22 12.9545V2.59091C22 1.1622 20.8435 0 19.4219 0ZM20.2812 12.9545C20.2812 13.4307 19.8957 13.8182 19.4219 13.8182H2.57812C2.10429 13.8182 1.71875 13.4307 1.71875 12.9545V2.59091C1.71875 2.11473 2.10429 1.72727 2.57812 1.72727H19.4219C19.8957 1.72727 20.2812 2.11473 20.2812 2.59091V12.9545ZM13.9455 6.02454L15.0367 4.92796L13.8213 3.70672L12.7302 4.8033C12.4611 4.64323 12.1689 4.51874 11.8594 4.43693V2.89841H10.1406V4.42934C9.82037 4.51098 9.51825 4.63817 9.2408 4.8033L8.14946 3.70672L6.93425 4.92796L8.02542 6.02454C7.86362 6.29932 7.73807 6.59788 7.65683 6.91432H6.10156V8.64159H7.65683C7.73807 8.95803 7.86362 9.25677 8.02542 9.53137L6.93425 10.628L8.14946 11.8494L9.2408 10.7528C9.51825 10.9177 9.82037 11.0451 10.1406 11.1267V12.6575H11.8594V11.119C12.1689 11.0372 12.4611 10.9127 12.7302 10.7528L13.8215 11.8494L15.0367 10.628L13.9455 9.53137C14.1073 9.2566 14.2329 8.95803 14.3143 8.64159H15.8555V6.91432H14.3141C14.2329 6.59788 14.1073 6.29932 13.9455 6.02454ZM9.26665 7.77796C9.26665 7.4072 9.38397 7.0636 9.5827 6.78191L9.99426 6.36831C10.2746 6.16859 10.6165 6.05068 10.9854 6.05068C11.9332 6.05068 12.7041 6.82559 12.7041 7.77796C12.7041 8.73049 11.9332 9.50523 10.9854 9.50523C10.0377 9.50523 9.26665 8.73049 9.26665 7.77796Z" fill="white"/>
</svg>
