<svg width="18" height="19" viewBox="0 0 18 19" fill="none" xmlns="http://www.w3.org/2000/svg">
<path d="M15.364 2.78246C13.6641 0.988186 11.404 0 9 0C6.59602 0 4.33593 0.988186 2.63602 2.78246C0.936176 4.57681 0 6.96246 0 9.5C0 12.0375 0.936176 14.4232 2.63602 16.2175C4.33593 18.0118 6.59602 19 9 19C11.404 19 13.6641 18.0118 15.364 16.2175C17.0638 14.4232 18 12.0375 18 9.5C18 6.96246 17.0638 4.57681 15.364 2.78246ZM16.5714 8.8822L12.9902 12.6623L11.9944 11.6112L16.2514 7.11776C16.4181 7.68186 16.5272 8.27261 16.5714 8.8822ZM15.6567 5.64619L11 10.5615L9.98068 9.48553L14.8287 4.36822C15.1418 4.76384 15.4195 5.1916 15.6567 5.64619ZM9.70312 1.51903C10.2331 1.57065 10.7475 1.67957 11.2406 1.84059L9.70312 3.46331V1.51903ZM9.70312 5.5624L12.6374 2.46551C13.0617 2.71095 13.4616 2.99773 13.832 3.32103L9.70312 7.67927V5.5624ZM9 17.5156C4.81279 17.5156 1.40625 13.9198 1.40625 9.5C1.40625 5.33043 4.43809 1.8948 8.29688 1.51903V9.80741L13.8469 15.6657C12.5309 16.8203 10.841 17.5156 9 17.5156ZM14.8412 14.6161L13.9846 13.7119L16.4372 11.1231C16.1813 12.4316 15.6221 13.6244 14.8412 14.6161Z" fill="white"/>
</svg>
