<svg width="18" height="18" viewBox="0 0 18 18" fill="none" xmlns="http://www.w3.org/2000/svg">
<g clip-path="url(#clip0)">
<path d="M10.2344 1.28564H7.14703C6.74422 1.28564 6.41772 1.6242 6.41772 2.04196V15.9327C6.41772 16.3505 6.74419 16.689 7.14703 16.689H10.2344C10.6372 16.689 10.9637 16.3505 10.9637 15.9327V2.04196C10.9636 1.62423 10.6372 1.28564 10.2344 1.28564ZM9.50506 15.1764H7.8763V2.79828H9.50506V15.1764Z" fill="white"/>
<path d="M3.81664 7.56311H0.729305C0.326464 7.56311 0 7.9017 0 8.31943V15.9581C0 16.3758 0.326464 16.7144 0.729305 16.7144H3.81664C4.21945 16.7144 4.54595 16.3761 4.54595 15.9581V8.31943C4.54591 7.9017 4.21945 7.56311 3.81664 7.56311ZM3.08733 15.2018H1.45858V9.07571H3.08733V15.2018Z" fill="white"/>
<path d="M16.6279 5.77319H13.5406C13.1378 5.77319 12.8113 6.11175 12.8113 6.52951V15.9581C12.8113 16.3758 13.1377 16.7144 13.5406 16.7144H16.6279C17.031 16.7144 17.3572 16.3761 17.3572 15.9581V6.52947C17.3572 6.11175 17.0308 5.77319 16.6279 5.77319ZM15.8987 15.2017H14.2699V7.28579H15.8987V15.2017Z" fill="white"/>
</g>
<defs>
<clipPath id="clip0">
<rect width="17.3571" height="18" fill="white"/>
</clipPath>
</defs>
</svg>
