<svg width="18" height="19" viewBox="0 0 18 19" fill="none" xmlns="http://www.w3.org/2000/svg">
<path d="M9 0L0 8.65433L0.921305 9.82902L1.76389 9.01877V16.6663C1.76389 17.9531 2.70935 19 3.87151 19H7.80571V11.3765H10.2646V19H14.1285C15.2906 19 16.2361 17.9531 16.2361 16.6663V9.01881L17.0787 9.82906L18 8.65436L9 0ZM14.8311 16.6663C14.8311 17.0952 14.5159 17.4442 14.1285 17.4442H11.6697V9.82069H6.40062V17.4442H3.87148C3.48409 17.4442 3.16895 17.0952 3.16895 16.6663V7.6677L9 2.06062L14.8311 7.6677V16.6663Z" fill="white"/>
</svg>
