<svg width="22" height="22" viewBox="0 0 22 22" fill="none" xmlns="http://www.w3.org/2000/svg">
<path d="M11 0C4.92529 0 0 4.92707 0 11C0 17.0765 4.92529 22 11 22C17.0747 22 22 17.0765 22 11C22 4.92707 17.0747 0 11 0ZM11 19.871C6.09737 19.871 2.12903 15.9043 2.12903 11C2.12903 6.09901 6.09755 2.12903 11 2.12903C15.9008 2.12903 19.871 6.0975 19.871 11C19.871 15.9025 15.9043 19.871 11 19.871ZM15.7568 8.55161C15.7568 11.5257 12.5446 11.5715 12.5446 12.6705V12.9516C12.5446 13.2456 12.3062 13.4839 12.0123 13.4839H9.98764C9.69371 13.4839 9.45539 13.2456 9.45539 12.9516V12.5675C9.45539 10.9821 10.6574 10.3483 11.5657 9.83901C12.3447 9.40234 12.8221 9.10534 12.8221 8.52704C12.8221 7.7621 11.8463 7.25437 11.0574 7.25437C10.0289 7.25437 9.55408 7.74125 8.88662 8.58364C8.70668 8.81073 8.37832 8.85291 8.14741 8.67785L6.91328 7.74205C6.68676 7.57031 6.63602 7.25122 6.796 7.01627C7.84398 5.47742 9.17879 4.6129 11.257 4.6129C13.4335 4.6129 15.7568 6.31187 15.7568 8.55161ZM12.8629 15.9677C12.8629 16.995 12.0272 17.8306 11 17.8306C9.97279 17.8306 9.1371 16.995 9.1371 15.9677C9.1371 14.9405 9.97279 14.1048 11 14.1048C12.0272 14.1048 12.8629 14.9405 12.8629 15.9677Z" fill="#01A5FF"/>
</svg>
