<svg width="19" height="20" viewBox="0 0 19 20" fill="none" xmlns="http://www.w3.org/2000/svg">
<path d="M17.0544 11.4153L18.7597 12.4072C18.9545 12.5205 19.0449 12.7547 18.9782 12.9711C18.5352 14.4083 17.7789 15.7067 16.7898 16.7851C16.7158 16.8658 16.6167 16.9188 16.5088 16.9353C16.401 16.9518 16.2908 16.9309 16.1963 16.8759L14.4922 15.8842C13.7753 16.5032 12.951 16.9835 12.0609 17.3007V19.2839C12.061 19.3939 12.0238 19.5006 11.9556 19.5865C11.8874 19.6723 11.7922 19.7323 11.6857 19.7564C10.2869 20.0729 8.78464 20.0893 7.31528 19.7567C7.09559 19.707 6.93901 19.5109 6.93901 19.284V17.3007C6.04892 16.9835 5.22465 16.5032 4.50771 15.8842L2.80369 16.8759C2.7092 16.9309 2.59898 16.9518 2.49113 16.9353C2.38328 16.9188 2.28421 16.8658 2.21018 16.7851C1.22108 15.7067 0.464748 14.4083 0.0217765 12.9711C-0.0449293 12.7548 0.0454656 12.5205 0.240221 12.4072L1.94556 11.4153C1.77427 10.4797 1.77427 9.52036 1.94556 8.58472L0.240261 7.59283C0.0455057 7.47956 -0.0448893 7.24533 0.0218165 7.02892C0.464788 5.59174 1.22108 4.29336 2.21022 3.21498C2.28425 3.13423 2.38332 3.08125 2.49117 3.06473C2.59902 3.04822 2.70924 3.06915 2.80373 3.12409L4.50775 4.11582C5.22471 3.49681 6.04897 3.01657 6.93905 2.69929V0.716112C6.93905 0.606122 6.9762 0.499409 7.0444 0.413531C7.1126 0.327653 7.20778 0.267726 7.31428 0.243613C8.71306 -0.0729184 10.2154 -0.0892894 11.6847 0.243331C11.9044 0.293048 12.061 0.489137 12.061 0.716031V2.69925C12.9511 3.01652 13.7753 3.49675 14.4923 4.11578L16.1963 3.12405C16.2908 3.06911 16.401 3.04818 16.5089 3.06469C16.6167 3.08121 16.7158 3.13419 16.7898 3.21494C17.7789 4.29332 18.5353 5.5917 18.9782 7.02888C19.0449 7.24525 18.9545 7.47948 18.7598 7.59279L17.0544 8.58468C17.2257 9.52033 17.2257 10.4797 17.0544 11.4153ZM12.7012 10C12.7012 8.22129 11.2652 6.7742 9.5 6.7742C7.73484 6.7742 6.29876 8.22129 6.29876 10C6.29876 11.7787 7.73484 13.2258 9.5 13.2258C11.2652 13.2258 12.7012 11.7787 12.7012 10Z" fill="#01A5FF"/>
</svg>
