<svg width="18" height="18" viewBox="0 0 18 18" fill="none" xmlns="http://www.w3.org/2000/svg">
<g clip-path="url(#clip0)">
<path d="M13.0124 6.04121C12.7452 5.74906 12.2998 5.73619 12.0176 6.01396L7.52542 10.432L5.38276 8.15061C5.11138 7.86187 4.66644 7.85555 4.38777 8.13701C4.10935 8.41819 4.10348 8.8801 4.37462 9.16884L7.00165 11.9659C7.13932 12.1126 7.32228 12.1865 7.50572 12.1865C7.67977 12.1865 7.85381 12.1199 7.99009 11.9863L12.9861 7.07283C13.2681 6.79552 13.28 6.3336 13.0124 6.04121Z" fill="white"/>
<path d="M8.67857 0C3.89315 0 0 4.03734 0 9C0 13.9627 3.89315 18 8.67857 18C13.464 18 17.3571 13.9627 17.3571 9C17.3571 4.03734 13.464 0 8.67857 0ZM8.67857 16.5406C4.66931 16.5406 1.40732 13.158 1.40732 9C1.40732 4.84225 4.66928 1.45944 8.67857 1.45944C12.6881 1.45944 15.9498 4.84221 15.9498 9C15.9498 13.158 12.6881 16.5406 8.67857 16.5406Z" fill="white"/>
</g>
<defs>
<clipPath id="clip0">
<rect width="17.3571" height="18" fill="white"/>
</clipPath>
</defs>
</svg>
