<svg width="18" height="19" viewBox="0 0 18 19" fill="none" xmlns="http://www.w3.org/2000/svg">
<path d="M15.8103 16.9164C17.2456 15.9579 18 14.4183 18 12.428C18 11.2419 17.7308 10.2108 17.1998 9.3632C16.7677 8.67335 16.1703 8.11604 15.4207 7.70251C15.4523 7.40334 15.4688 7.09508 15.4688 6.77763C15.4688 5.62239 15.2588 4.58359 14.8448 3.68991C14.4494 2.83651 13.8684 2.1138 13.118 1.54169C11.795 0.533086 9.9334 0 7.73438 0C5.53535 0 3.67372 0.533086 2.35072 1.54169C1.60031 2.1138 1.01936 2.83651 0.623988 3.68991C0.209953 4.58356 0 5.62239 0 6.77763C0 9.24939 0.95509 11.1484 2.77017 12.3061C2.52622 13.1766 2.22532 13.6975 2.22293 13.7016L1.54972 14.8378H2.82104C2.82526 14.8379 2.82962 14.8379 2.83426 14.8379C3.13826 14.8379 4.35034 14.778 5.50051 13.8998C5.78419 15.1479 6.4497 16.1601 7.4564 16.8599C8.52093 17.5998 9.97865 17.991 11.6719 17.991C12.1523 17.991 12.5885 17.9652 12.9948 17.9126C14.0198 18.9335 15.2336 18.9989 15.606 18.9925L15.6073 18.9925L16.9349 19L16.1927 17.8438C16.176 17.8158 15.9825 17.4832 15.8103 16.9164ZM4.00806 13.0938C4.10326 12.7995 4.19593 12.4642 4.27381 12.0931L4.39313 11.5248L3.89841 11.2674C2.24476 10.4067 1.40629 8.89614 1.40629 6.77763C1.40625 2.17152 5.371 1.48378 7.73438 1.48378C10.0978 1.48378 14.0625 2.17152 14.0625 6.77763C14.0625 11.3701 10.0978 12.0557 7.73438 12.0557C7.01111 12.0557 6.40361 12.0099 5.87732 11.9156L5.48582 11.8455L5.22675 12.1629C4.84098 12.6357 4.40427 12.9214 4.00806 13.0938ZM14.6785 15.8867L14.1838 16.1442L14.3031 16.7125C14.3383 16.8802 14.377 17.0381 14.4177 17.1859C14.2026 17.0592 13.9837 16.8834 13.7846 16.6394L13.5255 16.3219L13.134 16.3921C12.7018 16.4695 12.2235 16.5072 11.6719 16.5072C10.2545 16.5072 9.06427 16.2007 8.23004 15.6208C7.51426 15.1233 7.05487 14.417 6.85912 13.5158C7.135 13.5315 7.42577 13.5395 7.73441 13.5395C9.93484 13.5395 11.796 13.0094 13.117 12.0065C13.8678 11.4364 14.4491 10.7153 14.8446 9.86338C14.9403 9.65724 15.0246 9.44302 15.0984 9.22168C16.0913 9.90945 16.5938 10.9848 16.5938 12.428C16.5938 14.0616 15.9494 15.2253 14.6785 15.8867ZM6.99609 5.00755H5.58984C5.58984 4.37779 5.84617 3.77452 6.29307 3.35239C6.74174 2.92862 7.34323 2.72571 7.94289 2.79608C8.91113 2.90944 9.69082 3.73023 9.79685 4.74774C9.89367 5.67677 9.38809 6.33197 8.9994 6.74398C8.9042 6.84492 8.81694 6.93272 8.73991 7.01021C8.40241 7.34977 8.40241 7.3632 8.40241 7.5272V8.00943H6.99616V7.5272C6.99616 6.71449 7.38925 6.31899 7.76939 5.93643C7.84364 5.86173 7.92042 5.78446 8.00272 5.69725C8.38231 5.29488 8.41606 5.0735 8.399 4.90991C8.36431 4.57699 8.10724 4.30817 7.78778 4.27081C7.58194 4.24666 7.38422 4.31321 7.23097 4.45792C7.07952 4.60099 6.99609 4.79622 6.99609 5.00755ZM6.99609 9.08825H8.40234V10.572H6.99609V9.08825Z" fill="white"/>
</svg>
