<svg width="18" height="19" viewBox="0 0 18 19" fill="none" xmlns="http://www.w3.org/2000/svg">
<path d="M9 19C6.59605 19 4.33589 18.0118 2.63603 16.2175C0.936173 14.4232 0 12.0375 0 9.5C0 6.9625 0.936173 4.57677 2.63603 2.78248C4.33589 0.988182 6.59605 0 9 0C11.4039 0 13.6641 0.988182 15.364 2.78248C17.0638 4.57677 18 6.9625 18 9.5C18 12.0375 17.0638 14.4232 15.364 16.2175C13.6641 18.0118 11.4039 19 9 19ZM9 1.48438C4.81284 1.48438 1.40625 5.08022 1.40625 9.5C1.40625 13.9198 4.81284 17.5156 9 17.5156C13.1872 17.5156 16.5938 13.9198 16.5938 9.5C16.5938 5.08022 13.1872 1.48438 9 1.48438ZM11.0708 10.0575C11.0708 10.0569 11.0708 10.0564 11.0708 10.0558C10.9719 10.0546 10.8726 10.0601 10.7733 10.0708C10.7699 10.0711 10.7663 10.0716 10.7629 10.072C10.7246 10.0762 10.6864 10.0814 10.6481 10.0875C10.6389 10.089 10.6298 10.0906 10.6208 10.0922C10.6002 10.0956 10.5797 10.0985 10.5592 10.1024C10.5342 10.0978 10.5043 10.0855 10.4705 10.0669C10.0694 9.84573 10.014 9.26198 10.3545 8.94727C10.3966 8.90828 10.435 8.87697 10.4675 8.85522C10.5901 8.8803 10.7157 8.89654 10.8436 8.90292C10.8857 8.90509 10.9274 8.90625 10.9688 8.90625C11.0089 8.90625 11.0487 8.90495 11.0884 8.90306C11.0988 8.90263 11.1094 8.90205 11.1198 8.90147C11.158 8.89915 11.1959 8.89625 11.2335 8.89219C11.2404 8.89146 11.2473 8.89045 11.2541 8.88972C11.2854 8.8861 11.3165 8.8819 11.3475 8.87711C11.3616 8.87494 11.3758 8.87276 11.3898 8.8703C11.4196 8.86523 11.4493 8.85972 11.4787 8.85349C11.4966 8.84986 11.5145 8.84566 11.5323 8.8416C11.5546 8.83638 11.5768 8.83116 11.5988 8.82536C11.6156 8.82101 11.6323 8.81667 11.6489 8.81188C11.6526 8.81087 11.6565 8.81 11.6603 8.80884C11.6603 8.80869 11.6603 8.80855 11.6603 8.8084C12.7797 8.48689 13.6055 7.4052 13.6055 6.12305C13.6055 4.58837 12.4227 3.33984 10.9688 3.33984C9.51485 3.33984 8.33203 4.58837 8.33203 6.12305C8.33203 6.58257 8.43874 7.01599 8.62633 7.39825C8.62592 7.39883 8.62537 7.39926 8.62495 7.3997C8.68909 7.5303 8.76352 7.65642 8.84784 7.77673C8.86473 7.83979 8.85635 7.95126 8.8293 8.08781C8.75212 8.4763 8.37529 8.71172 8.01384 8.60184C7.93749 8.57864 7.87404 8.55458 7.8279 8.53066C7.46384 7.45319 6.48798 6.67969 5.34375 6.67969C3.88985 6.67969 2.70703 7.92822 2.70703 9.46289C2.70703 10.9976 3.88985 12.2461 5.34375 12.2461C6.14891 12.2461 6.87044 11.8628 7.35452 11.2605C7.35631 11.2626 7.35837 11.2644 7.36029 11.2665C7.53058 11.0528 7.67038 10.8119 7.77475 10.5482C7.81389 10.5044 7.89725 10.4589 8.00752 10.4166C8.34837 10.2855 8.72397 10.4714 8.84633 10.8319C8.89247 10.968 8.92337 11.0864 8.93147 11.167C8.8282 11.3133 8.7399 11.4653 8.66835 11.6205C8.6608 11.6368 8.65407 11.6535 8.64679 11.67C8.64706 11.67 8.6472 11.6702 8.64734 11.6703C8.49051 12.026 8.40234 12.4222 8.40234 12.8398C8.40234 14.3745 9.58516 15.623 11.0391 15.623C12.493 15.623 13.6758 14.3745 13.6758 12.8398C13.6758 11.3165 12.5101 10.0756 11.0708 10.0575ZM5.34375 10.7617C4.66521 10.7617 4.11328 10.1791 4.11328 9.46289C4.11328 8.74665 4.66521 8.16406 5.34375 8.16406C5.55277 8.16406 5.7497 8.21944 5.92218 8.31699C5.91998 8.32004 5.91751 8.32308 5.91531 8.32613C6.10895 8.43354 6.27814 8.59589 6.3983 8.80826C6.44705 8.89436 6.48702 8.98946 6.52052 9.09904C6.52602 9.11702 6.53206 9.13456 6.53838 9.15181C6.56158 9.25154 6.57422 9.35562 6.57422 9.46289C6.57422 10.1791 6.02229 10.7617 5.34375 10.7617ZM10.9688 4.82422C11.6473 4.82422 12.1992 5.40681 12.1992 6.12305C12.1992 6.6807 11.8644 7.15733 11.396 7.34099C11.3851 7.34519 11.3741 7.34911 11.3633 7.35302C11.3563 7.35548 11.3493 7.35809 11.3421 7.36056C11.332 7.36404 11.3217 7.36708 11.3114 7.37027C11.3033 7.37273 11.2952 7.37534 11.2869 7.37766C11.2772 7.38042 11.2673 7.38288 11.2574 7.38549C11.2484 7.38766 11.2394 7.38998 11.2302 7.39201C11.2209 7.39419 11.2114 7.39622 11.2019 7.39825C11.192 7.40013 11.1822 7.40202 11.1721 7.40376C11.1632 7.40535 11.1541 7.40694 11.1452 7.40839C11.1344 7.40999 11.1234 7.41144 11.1124 7.41274C11.104 7.41376 11.0956 7.41492 11.0873 7.41579C11.0746 7.41695 11.0619 7.41796 11.0492 7.41883C11.0422 7.41927 11.0354 7.41999 11.0285 7.42028C11.0087 7.4213 10.9888 7.42188 10.9688 7.42188C10.9451 7.42188 10.9214 7.42115 10.8973 7.41956C10.8968 7.41956 10.8961 7.41941 10.8956 7.41941C10.8303 7.41506 10.7629 7.40448 10.6922 7.38839C10.3657 7.30895 10.0885 7.09224 9.91832 6.79884C9.9175 6.79739 9.91653 6.7958 9.91571 6.7942C9.9061 6.77768 9.89703 6.76101 9.88824 6.7439C9.88715 6.74173 9.88591 6.73941 9.88481 6.73724C9.79143 6.55415 9.73828 6.34512 9.73828 6.12305C9.73828 5.40681 10.2902 4.82422 10.9688 4.82422ZM11.0391 14.1387C10.3605 14.1387 9.80859 13.5561 9.80859 12.8398C9.80859 12.1938 10.2578 11.6565 10.8438 11.5575C10.8485 11.5568 10.853 11.5559 10.8577 11.5552C10.9168 11.5459 10.9774 11.541 11.0391 11.541C11.7176 11.541 12.2695 12.1236 12.2695 12.8398C12.2695 13.5561 11.7176 14.1387 11.0391 14.1387Z" fill="white"/>
</svg>
